<?xml version="1.0" standalone="no"?>
<!DOCTYPE svg PUBLIC "-//W3C//DTD SVG 20010904//EN"
 "http://www.w3.org/TR/2001/REC-SVG-20010904/DTD/svg10.dtd">
<svg version="1.0" xmlns="http://www.w3.org/2000/svg"
 width="3000.000000pt" height="3000.000000pt" viewBox="0 0 3000.000000 3000.000000"
 preserveAspectRatio="xMidYMid meet">
<metadata>
Created by potrace 1.14, written by Peter Selinger 2001-2017
</metadata>
<g transform="translate(0.000000,3000.000000) scale(0.100000,-0.100000)"
fill="#000000" stroke="none">
<path d="M3418 29536 c-1 -2 -30 -6 -63 -9 -102 -11 -153 -23 -212 -52 -55
-26 -155 -99 -202 -147 -52 -53 -133 -182 -213 -338 -18 -36 -36 -66 -40 -68
-5 -2 -8 -12 -8 -22 0 -10 -3 -20 -8 -22 -8 -3 -97 -184 -128 -260 -10 -27
-22 -48 -26 -48 -5 0 -8 -5 -8 -11 0 -6 -61 -147 -136 -313 -75 -165 -146
-321 -157 -346 -27 -60 -57 -127 -106 -233 -22 -48 -50 -111 -62 -140 -12 -28
-28 -59 -36 -68 -7 -8 -13 -20 -13 -26 0 -5 -13 -36 -29 -69 -16 -32 -47 -97
-69 -144 -22 -47 -66 -139 -97 -205 -32 -66 -79 -165 -105 -220 -26 -55 -63
-134 -82 -175 -51 -108 -102 -215 -136 -290 -16 -36 -58 -123 -92 -195 -107
-224 -117 -249 -128 -300 -14 -66 -7 -207 13 -260 63 -171 201 -294 368 -328
84 -18 167 -15 237 8 3 1 18 5 34 10 54 15 121 59 182 121 53 53 73 84 148
237 47 97 98 203 112 234 49 108 82 178 124 268 23 50 56 119 73 155 17 36 30
68 29 73 -1 4 2 7 8 7 5 0 10 4 10 9 0 9 43 103 160 346 34 72 77 162 95 200
18 39 49 106 70 150 63 136 106 229 120 260 8 17 79 174 158 350 301 666 363
795 380 795 7 0 43 -18 81 -40 37 -22 70 -40 72 -40 7 0 199 -125 202 -132 2
-5 7 -8 12 -8 9 0 254 -159 277 -179 7 -6 14 -11 17 -11 3 0 34 -20 69 -45 36
-25 68 -45 71 -45 4 0 12 -5 19 -11 11 -10 78 -54 392 -258 72 -47 221 -146
333 -220 112 -75 211 -140 220 -146 9 -5 21 -14 26 -18 15 -11 322 -217 596
-400 124 -83 227 -154 228 -159 2 -4 7 -8 12 -8 4 0 36 -19 70 -42 34 -24 69
-47 78 -53 10 -5 33 -21 52 -35 19 -14 42 -29 51 -35 48 -29 142 -94 204 -140
106 -79 164 -108 265 -132 23 -5 152 -5 179 1 13 3 40 11 60 18 20 7 38 12 41
13 3 0 30 15 60 34 57 35 135 109 159 151 36 62 61 120 61 138 0 12 4 23 9 26
4 3 7 49 6 103 -2 100 -5 119 -18 141 -5 6 -6 12 -2 12 3 0 -1 14 -10 30 -9
17 -13 30 -9 30 3 0 -6 16 -20 35 -15 19 -25 35 -22 35 3 0 -14 21 -37 46 -52
57 -210 175 -427 319 -91 61 -167 112 -170 115 -3 3 -189 128 -415 279 -225
151 -411 278 -413 283 -2 4 -8 8 -14 8 -12 0 -102 61 -106 72 -2 4 -8 8 -13 8
-10 0 -155 96 -177 117 -7 7 -20 13 -28 13 -8 0 -14 4 -14 8 0 5 -12 15 -27
23 -16 8 -33 19 -40 24 -6 6 -87 59 -180 119 -92 60 -266 174 -386 253 -119
79 -221 143 -226 143 -5 0 -11 3 -13 8 -3 6 -179 127 -230 157 -10 5 -66 41
-125 79 -150 96 -157 100 -163 101 -3 0 -38 20 -79 44 -110 65 -358 176 -416
187 -11 2 -49 10 -85 19 -36 8 -94 18 -130 21 -36 3 -70 7 -77 9 -6 2 -13 2
-15 1z"/>
<path d="M3968 27485 c-2 -2 -17 -5 -34 -8 -17 -3 -42 -11 -55 -18 -13 -7 -25
-11 -27 -10 -11 9 -108 -54 -157 -104 -119 -118 -154 -218 -149 -415 2 -69 6
-136 9 -150 7 -30 24 -123 30 -165 6 -38 13 -72 19 -93 3 -9 7 -33 10 -52 3
-19 10 -60 16 -90 13 -69 51 -304 56 -349 2 -19 5 -48 8 -65 2 -17 7 -53 11
-81 3 -27 8 -66 11 -85 3 -19 7 -57 9 -85 3 -27 7 -63 9 -80 4 -29 10 -89 22
-205 10 -110 14 -156 19 -220 3 -36 7 -92 10 -125 2 -33 7 -91 10 -130 3 -38
8 -92 10 -120 3 -27 7 -95 10 -150 3 -55 8 -134 10 -175 8 -114 20 -336 29
-510 4 -58 8 -143 11 -190 2 -47 7 -130 10 -185 3 -55 8 -136 10 -180 3 -44 7
-118 10 -165 5 -81 10 -168 20 -325 3 -38 7 -97 9 -130 2 -33 7 -107 11 -165
3 -58 7 -125 9 -150 2 -25 7 -90 11 -145 4 -55 8 -116 10 -135 2 -19 6 -84 10
-145 4 -60 9 -135 11 -165 3 -30 7 -84 9 -120 9 -146 15 -228 20 -285 2 -33 7
-100 10 -150 4 -49 8 -110 11 -135 2 -25 6 -83 9 -130 5 -96 12 -191 21 -297
3 -39 7 -94 8 -121 2 -27 6 -54 10 -61 4 -6 2 -11 -4 -11 -6 0 -9 -4 -5 -10 3
-5 8 -40 10 -77 7 -97 15 -209 21 -278 3 -33 7 -96 10 -140 3 -44 6 -100 8
-125 11 -126 19 -247 31 -425 2 -33 6 -87 9 -120 3 -33 8 -100 11 -150 3 -49
8 -108 10 -130 2 -22 7 -80 10 -130 3 -49 8 -112 10 -140 4 -47 8 -102 21
-270 3 -38 7 -97 10 -130 11 -148 14 -184 18 -245 3 -36 7 -90 10 -120 3 -30
8 -93 11 -140 4 -47 8 -101 10 -120 2 -19 6 -75 10 -125 3 -49 8 -108 10 -130
3 -22 7 -76 10 -120 3 -44 7 -96 10 -115 2 -19 6 -75 10 -125 3 -49 8 -108 10
-130 6 -49 16 -164 20 -225 3 -44 11 -146 21 -265 3 -33 7 -85 9 -115 2 -30 6
-75 9 -100 3 -25 7 -83 11 -130 3 -47 8 -101 10 -120 2 -19 7 -73 10 -120 3
-47 8 -101 10 -120 2 -19 7 -71 10 -115 3 -44 8 -100 10 -125 3 -25 8 -79 10
-120 3 -41 7 -91 9 -110 2 -19 7 -75 11 -125 7 -98 13 -173 20 -250 3 -27 7
-84 10 -125 4 -41 8 -97 10 -125 7 -75 16 -184 20 -240 2 -27 6 -77 9 -110 5
-55 12 -145 21 -265 4 -67 15 -199 20 -245 2 -22 7 -74 10 -115 3 -41 8 -109
11 -150 3 -41 7 -95 9 -120 7 -78 18 -244 19 -275 1 -27 -2 -30 -29 -28 -16 1
-75 4 -130 8 -55 3 -287 8 -515 10 -368 3 -634 10 -725 20 -16 1 -64 6 -105 9
-41 4 -82 9 -90 11 -8 2 -44 7 -80 10 -36 4 -72 9 -81 10 -9 2 -40 6 -70 10
-30 4 -65 9 -79 10 -128 17 -307 23 -367 13 -98 -18 -235 -123 -270 -207 -32
-77 -36 -87 -39 -116 -5 -37 -4 -92 1 -125 4 -29 13 -64 15 -67 2 -2 3 -6 4
-10 5 -32 48 -96 92 -140 75 -75 161 -112 279 -118 92 -5 198 -15 225 -20 14
-3 49 -7 78 -11 29 -3 61 -7 70 -9 10 -2 45 -6 77 -10 33 -4 71 -9 85 -11 37
-6 135 -15 220 -19 41 -3 75 -5 75 -5 0 -6 169 -10 555 -14 430 -5 557 -8 745
-21 95 -7 113 -9 120 -16 4 -5 9 -51 20 -224 2 -33 6 -96 10 -140 3 -44 8
-111 10 -150 5 -83 13 -201 20 -305 5 -74 11 -154 20 -300 3 -41 7 -105 10
-141 2 -36 7 -110 10 -165 2 -54 7 -130 10 -169 3 -38 8 -108 10 -155 20 -332
24 -405 25 -405 0 0 3 -45 5 -100 3 -55 8 -136 10 -180 10 -164 15 -243 20
-340 3 -55 7 -134 10 -175 2 -41 7 -122 10 -180 3 -58 7 -141 10 -185 7 -119
15 -263 30 -565 3 -63 7 -149 10 -190 2 -41 6 -127 10 -190 3 -63 8 -153 10
-200 12 -213 16 -283 20 -395 3 -66 7 -149 10 -185 4 -59 12 -201 20 -385 4
-91 15 -297 20 -380 2 -36 7 -127 11 -203 8 -166 11 -213 19 -362 3 -63 8
-149 10 -190 2 -41 4 -75 5 -75 0 0 3 -45 5 -100 3 -55 7 -140 10 -190 7 -112
12 -200 19 -335 3 -58 8 -141 12 -185 3 -44 7 -111 9 -150 6 -121 16 -288 20
-345 3 -30 7 -107 10 -170 4 -63 8 -135 11 -160 2 -25 7 -94 10 -155 4 -60 8
-126 9 -145 1 -19 6 -89 10 -155 4 -66 9 -123 11 -127 7 -12 -11 -17 -82 -23
-38 -3 -89 -8 -114 -10 -25 -3 -67 -7 -95 -9 -49 -4 -155 -14 -225 -21 -19 -2
-66 -6 -105 -10 -38 -3 -88 -8 -110 -10 -22 -3 -69 -7 -105 -10 -36 -2 -83 -7
-105 -9 -22 -3 -71 -7 -110 -11 -144 -12 -181 -16 -220 -20 -22 -2 -71 -7
-110 -10 -38 -3 -88 -7 -110 -10 -22 -3 -74 -7 -115 -11 -134 -10 -164 -12
-240 -19 -41 -4 -93 -8 -115 -10 -22 -2 -74 -6 -115 -10 -41 -3 -95 -8 -120
-10 -25 -2 -81 -6 -125 -9 -44 -4 -100 -9 -125 -11 -25 -3 -76 -7 -115 -11
-38 -3 -81 -7 -95 -9 -14 -2 -58 -7 -99 -10 -41 -4 -83 -9 -94 -11 -11 -2 -45
-6 -76 -9 -31 -4 -67 -9 -81 -11 -14 -3 -41 -7 -60 -9 -52 -7 -91 -13 -130
-20 -19 -3 -46 -8 -60 -10 -14 -2 -68 -13 -120 -25 -52 -12 -104 -23 -115 -26
-46 -9 -63 -14 -120 -29 -33 -9 -68 -18 -77 -20 -9 -2 -26 -9 -37 -15 -12 -6
-21 -8 -21 -5 0 3 -8 2 -17 -4 -10 -5 -43 -12 -74 -15 -65 -8 -92 -12 -122
-22 -33 -10 -110 -47 -124 -59 -6 -5 -27 -21 -46 -35 -19 -14 -50 -46 -69 -72
-18 -26 -36 -47 -40 -48 -5 0 -8 -8 -8 -17 0 -9 -6 -24 -14 -32 -46 -54 -56
-306 -15 -382 5 -11 7 -19 5 -19 -3 0 11 -26 32 -59 37 -58 96 -131 107 -131
3 0 24 -13 46 -30 46 -33 135 -69 189 -76 83 -12 233 -4 305 16 22 6 47 12 55
14 8 2 42 12 75 22 33 10 65 19 70 20 6 2 35 10 65 18 30 8 66 17 80 20 14 3
56 12 93 20 38 8 87 18 110 21 23 3 49 8 57 10 8 2 38 7 65 10 28 3 61 7 75
10 45 7 184 24 255 31 39 3 81 7 95 9 25 2 135 12 238 21 28 2 76 6 105 9 28
2 84 7 123 10 39 3 93 8 120 10 27 2 83 7 124 10 41 3 93 8 115 10 22 3 74 8
115 11 41 2 91 6 110 9 19 2 71 6 115 10 44 3 96 8 115 10 40 5 124 12 225 20
39 3 84 8 100 10 17 2 60 7 95 10 36 3 90 7 120 10 30 3 83 7 116 10 34 3 79
7 100 10 22 2 72 7 113 10 40 3 92 8 115 11 22 2 68 6 101 9 33 3 92 7 130 11
l70 6 3 -59 c2 -32 5 -78 7 -103 4 -42 11 -140 20 -270 2 -30 7 -91 10 -135 3
-44 8 -107 10 -140 5 -74 13 -189 20 -275 3 -36 7 -96 10 -135 3 -38 7 -97 9
-130 3 -33 8 -98 11 -145 3 -47 8 -108 10 -136 4 -46 12 -146 20 -279 8 -121
17 -242 21 -270 10 -77 15 -99 23 -109 4 -6 14 -28 20 -48 7 -21 16 -38 21
-38 5 0 12 -9 15 -21 4 -11 33 -47 65 -79 61 -61 140 -107 222 -130 45 -12
170 -16 213 -7 70 15 151 46 183 70 8 7 42 39 76 72 92 90 138 190 146 320 3
34 -8 243 -15 295 -3 19 -7 78 -11 130 -9 157 -21 316 -29 415 -3 33 -8 101
-10 150 -3 50 -7 108 -10 130 -2 22 -7 83 -10 135 -3 52 -8 113 -10 135 -3 22
-7 83 -10 135 -10 153 -13 201 -19 265 -6 78 -18 248 -21 303 -1 41 0 42 29
42 34 1 119 7 211 14 33 3 96 8 140 11 44 3 100 8 125 10 43 4 161 13 260 20
110 7 248 17 280 20 19 2 85 6 145 10 61 3 130 8 155 10 43 4 138 11 280 20
36 3 101 7 145 10 44 2 116 7 160 10 44 2 109 7 145 9 36 3 103 8 150 11 47 3
119 7 160 10 71 5 165 11 330 20 41 2 109 7 150 10 41 3 122 8 180 11 58 3
132 7 165 9 127 8 263 16 330 20 39 2 120 7 180 11 61 3 135 8 165 9 30 2 55
4 55 4 0 1 54 4 120 7 66 2 147 7 180 9 58 4 207 12 365 20 41 2 127 7 190 11
63 3 138 8 165 9 28 2 113 6 190 10 77 5 173 8 212 9 40 1 73 3 73 6 0 3 30 5
68 6 63 1 294 11 427 19 55 3 250 13 405 20 36 2 119 6 185 9 66 3 163 8 215
11 52 3 158 7 235 10 77 2 140 5 140 6 0 1 72 4 275 13 74 4 180 8 235 11 55
3 159 7 230 10 191 8 327 14 445 19 184 9 402 18 495 21 207 8 406 16 490 20
50 3 169 7 265 11 96 3 211 7 255 9 84 4 335 14 515 20 346 11 638 23 728 28
23 1 42 -2 42 -6 0 -5 5 -5 11 -2 11 8 60 10 364 20 110 3 254 8 320 10 111 4
216 7 635 20 85 2 247 7 360 10 113 2 302 7 420 10 785 21 1523 29 2565 29
1211 0 1559 -5 3420 -49 127 -3 313 -8 415 -10 102 -2 277 -7 390 -10 243 -8
214 -8 271 -1 59 7 133 32 181 62 20 13 41 24 44 24 16 0 121 123 147 172 32
58 70 215 56 224 -5 3 -5 13 1 23 5 10 7 20 5 23 -3 3 -8 25 -11 49 -3 24 -11
50 -16 57 -6 6 -7 12 -2 12 4 0 3 5 -4 12 -7 7 -12 20 -12 29 0 10 -6 24 -12
31 -7 7 -19 24 -26 38 -19 36 -90 111 -138 143 -40 27 -127 64 -169 73 -80 16
-219 21 -1495 49 -113 2 -308 7 -435 10 -1028 25 -1373 29 -2620 28 -687 0
-1421 -3 -1630 -7 -373 -7 -478 -9 -1020 -22 -148 -3 -325 -7 -392 -8 -68 0
-123 -4 -123 -7 0 -3 -23 -3 -50 1 -28 4 -52 4 -55 2 -3 -3 -51 -6 -107 -8
-57 -1 -191 -5 -298 -8 -107 -4 -274 -9 -370 -12 -96 -3 -229 -7 -295 -9 -66
-3 -196 -7 -290 -10 -93 -3 -219 -7 -280 -10 -60 -2 -193 -7 -295 -10 -102 -3
-228 -8 -280 -10 -52 -3 -162 -7 -245 -10 -82 -2 -206 -7 -275 -10 -69 -3
-186 -7 -260 -10 -74 -3 -198 -8 -275 -11 -77 -3 -176 -7 -220 -9 -129 -5
-404 -16 -490 -20 -44 -2 -154 -7 -245 -10 -91 -4 -194 -8 -230 -10 -36 -2
-137 -6 -225 -10 -88 -3 -194 -8 -235 -10 -72 -4 -232 -11 -439 -20 -134 -6
-306 -14 -436 -20 -60 -3 -153 -8 -205 -10 -100 -5 -220 -11 -410 -20 -63 -3
-151 -8 -195 -10 -44 -3 -129 -7 -190 -10 -60 -3 -150 -7 -200 -10 -143 -8
-272 -15 -390 -20 -60 -3 -150 -7 -200 -11 -49 -3 -124 -7 -165 -9 -100 -5
-289 -15 -373 -21 -38 -2 -114 -6 -170 -9 -56 -2 -136 -7 -177 -10 -41 -2
-122 -7 -180 -10 -58 -3 -136 -8 -175 -10 -38 -3 -113 -7 -165 -10 -52 -3
-129 -7 -170 -10 -41 -2 -122 -7 -180 -10 -58 -3 -132 -8 -165 -10 -33 -3
-103 -7 -155 -10 -52 -3 -126 -8 -165 -10 -168 -10 -246 -15 -330 -20 -124 -8
-218 -14 -295 -20 -36 -2 -103 -7 -150 -10 -225 -13 -270 -16 -335 -21 -121
-10 -178 -14 -260 -18 -44 -3 -114 -8 -155 -11 -41 -3 -104 -7 -140 -10 -36
-2 -94 -6 -130 -9 -36 -3 -99 -8 -140 -11 -41 -2 -106 -7 -145 -10 -80 -7
-159 -13 -260 -20 -38 -3 -95 -7 -125 -9 -30 -3 -100 -8 -155 -11 -55 -4 -103
-9 -107 -11 -4 -3 -7 4 -7 13 0 10 -2 56 -6 103 -3 47 -8 117 -10 155 -2 39
-6 102 -9 140 -3 39 -8 113 -11 165 -3 52 -8 122 -10 155 -4 63 -14 225 -20
335 -10 169 -16 261 -20 335 -3 44 -8 118 -10 165 -2 47 -7 126 -10 175 -7
138 -15 272 -20 359 -3 44 -7 123 -10 175 -3 53 -7 130 -9 171 -3 41 -7 129
-11 195 -3 66 -8 163 -11 215 -3 52 -7 133 -9 180 -3 47 -7 128 -10 180 -9
171 -15 284 -20 380 -2 52 -7 147 -11 210 -3 63 -7 147 -9 185 -1 39 -5 120
-9 180 -3 61 -8 157 -11 215 -3 58 -8 141 -10 185 -3 44 -7 130 -10 190 -3 61
-7 148 -10 195 -3 47 -7 130 -10 185 -3 55 -8 145 -11 200 -3 55 -7 132 -9
170 -6 145 -15 312 -20 365 -3 30 -7 107 -10 170 -3 63 -8 153 -10 200 -3 47
-7 119 -10 160 -13 250 -17 319 -20 350 -2 19 -7 94 -10 165 -4 72 -8 148 -10
170 -1 22 -6 92 -9 155 -4 63 -9 142 -12 175 -2 33 -6 98 -9 145 -3 47 -8 117
-10 155 -3 39 -8 111 -11 160 -5 90 -9 153 -18 275 -3 36 -8 108 -11 160 -3
52 -8 122 -11 155 -10 145 -12 215 -5 215 7 0 90 -15 136 -24 47 -10 127 -28
225 -52 178 -44 250 -42 368 12 75 34 105 54 312 215 96 74 220 169 275 210
55 41 102 77 103 82 2 4 8 7 14 7 5 0 16 7 25 15 8 9 43 34 77 57 33 23 63 44
66 47 3 4 39 29 80 57 41 29 122 84 180 123 58 40 184 125 280 189 96 64 177
120 178 124 2 4 8 8 13 8 5 0 41 21 81 47 175 112 528 269 713 318 54 14 159
34 215 41 33 4 125 15 255 31 74 9 300 8 339 -1 15 -4 57 -14 93 -22 183 -42
245 -76 368 -199 167 -167 199 -211 313 -420 38 -71 86 -159 106 -193 20 -35
36 -66 36 -68 0 -2 23 -46 52 -96 28 -51 59 -107 67 -125 9 -18 38 -57 64 -87
58 -68 157 -119 272 -141 44 -8 94 -17 110 -20 17 -4 50 -8 74 -10 41 -4 116
-11 201 -20 19 -2 64 -7 100 -10 36 -3 83 -8 104 -11 21 -2 61 -6 87 -9 27 -3
65 -7 85 -10 20 -2 80 -7 133 -11 53 -3 116 -8 141 -10 25 -2 419 -6 875 -8
457 -3 840 -5 851 -6 16 0 38 -26 85 -97 35 -53 68 -104 74 -114 41 -71 87
-146 132 -216 29 -46 53 -87 53 -92 0 -5 4 -11 8 -13 4 -1 19 -21 32 -43 26
-45 123 -196 151 -237 11 -15 19 -30 19 -33 0 -3 16 -28 35 -55 19 -27 35 -54
35 -59 0 -5 3 -11 8 -13 4 -2 42 -55 84 -118 110 -166 164 -216 280 -257 54
-20 158 -25 208 -11 8 2 30 8 48 12 17 4 32 12 32 17 0 6 4 8 9 5 5 -3 14 1
21 9 7 8 18 15 24 15 10 0 32 19 77 68 43 46 85 138 94 204 2 18 16 92 30 163
14 72 27 148 30 170 3 22 7 51 10 65 3 14 8 43 11 65 4 22 26 157 51 300 47
282 48 283 57 335 42 220 90 490 101 565 7 44 13 80 19 110 2 11 7 43 11 70 4
28 9 59 11 70 4 29 44 305 49 340 3 17 7 55 11 85 3 30 7 57 9 60 2 3 6 39 10
80 4 41 8 77 10 80 1 3 6 32 9 65 14 126 17 151 22 177 3 15 7 50 9 77 2 27 6
66 9 87 5 40 9 80 31 319 15 173 21 246 29 365 3 36 8 103 12 150 3 47 7 110
9 140 2 30 6 100 9 155 4 55 9 136 12 180 5 82 9 154 19 333 3 57 8 125 10
150 2 26 6 92 9 147 4 55 8 120 11 145 2 25 7 77 10 115 10 107 14 145 21 210
4 33 8 71 9 85 6 62 16 137 19 157 3 12 8 55 11 95 3 39 8 74 10 77 2 4 6 33
9 66 3 33 7 76 10 95 3 19 8 58 11 85 3 28 8 64 10 80 3 17 7 55 10 85 3 30 7
66 9 80 3 14 7 50 10 80 3 30 8 65 10 77 3 12 7 53 11 90 3 37 7 75 10 83 2 8
7 40 10 70 3 30 8 62 10 70 2 8 6 40 10 71 3 31 7 65 9 75 2 11 7 46 11 79 4
32 8 66 10 75 1 8 6 42 9 75 4 33 9 67 11 75 5 20 15 95 29 235 3 33 8 71 11
85 3 14 7 57 10 96 3 38 8 81 10 95 3 13 7 53 10 89 3 36 7 76 10 90 2 14 6
56 10 93 3 37 8 76 10 85 1 9 6 42 9 72 4 30 8 66 10 80 14 82 22 156 24 214
1 22 5 37 8 33 7 -6 6 -254 -1 -583 -14 -597 -21 -1251 -16 -1419 0 -27 1 -57
0 -65 0 -8 2 -80 5 -160 4 -80 8 -197 11 -260 17 -421 40 -806 60 -1020 3 -25
7 -70 9 -100 8 -88 16 -162 21 -200 3 -19 7 -64 10 -100 3 -36 8 -81 10 -100
2 -19 6 -71 10 -115 3 -44 8 -96 10 -115 3 -19 7 -69 10 -110 3 -41 7 -95 10
-120 2 -25 7 -85 9 -135 3 -49 7 -119 11 -155 3 -36 8 -94 10 -130 13 -181 16
-220 20 -275 3 -33 7 -96 10 -140 3 -44 7 -111 10 -150 6 -92 14 -228 19 -345
16 -331 30 -578 42 -745 2 -38 7 -104 9 -145 3 -41 8 -113 11 -160 6 -94 10
-157 18 -305 4 -55 8 -129 11 -165 10 -131 15 -215 21 -314 3 -56 7 -126 9
-156 5 -54 14 -229 20 -385 4 -75 7 -173 20 -505 3 -74 7 -301 10 -505 6 -416
15 -865 20 -970 8 -174 17 -287 25 -314 4 -16 6 -32 3 -34 -4 -5 47 -119 69
-151 19 -27 58 -66 58 -58 0 4 5 -1 11 -11 5 -9 17 -17 24 -17 8 0 15 -4 15
-8 0 -14 85 -49 140 -58 131 -19 249 17 341 106 48 47 106 140 120 193 4 18
22 77 39 132 17 55 33 109 36 120 6 32 107 336 159 480 26 72 63 177 82 235
19 58 37 112 40 120 3 8 7 20 8 25 15 59 101 331 221 700 58 176 106 327 108
335 1 8 13 47 25 85 12 39 24 77 26 85 2 8 28 98 58 200 30 102 57 194 60 205
3 11 19 67 35 125 24 85 75 288 98 391 2 10 6 29 10 42 3 12 7 31 9 42 2 11 6
31 9 45 3 14 10 48 16 76 9 42 14 50 33 50 22 1 122 11 182 19 29 4 189 20
309 30 107 9 330 23 501 30 242 11 320 15 390 19 39 3 113 8 165 11 52 3 115
8 140 10 25 3 81 7 125 10 44 3 100 7 125 9 25 2 83 7 130 11 47 3 99 8 115
10 47 6 134 15 200 20 33 3 87 7 120 10 93 8 299 15 540 20 121 2 225 4 230 5
6 2 12 2 15 1 13 -5 110 -5 110 -1 0 3 46 5 102 4 160 -1 283 48 388 156 25
26 90 94 146 151 130 135 246 245 448 424 37 33 83 74 100 90 29 26 200 183
230 210 6 6 40 35 76 65 36 30 67 57 70 60 3 3 46 39 95 80 50 41 96 81 103
87 7 7 41 34 75 60 34 26 64 50 67 53 3 3 23 18 45 35 22 16 42 31 45 35 33
36 184 133 250 160 30 12 64 26 75 30 291 121 581 161 805 110 52 -12 106 -23
119 -26 76 -15 212 -73 341 -145 45 -25 174 -113 204 -139 249 -216 315 -297
424 -522 29 -60 52 -111 52 -114 0 -3 6 -20 14 -37 8 -18 26 -63 41 -102 15
-38 33 -83 40 -100 20 -43 146 -348 149 -360 5 -16 39 -90 105 -228 33 -70 61
-130 61 -132 0 -26 94 -189 130 -226 59 -61 157 -114 252 -135 13 -3 295 -7
628 -9 333 -2 643 -6 690 -9 182 -11 555 -28 620 -28 63 1 124 14 178 40 58
27 155 116 167 151 3 11 11 21 17 21 6 0 9 3 5 6 -3 4 0 19 8 34 19 37 32 146
24 201 -6 42 -18 76 -52 147 -19 39 -104 117 -159 145 -77 38 -103 43 -318 51
-74 3 -180 8 -235 12 -208 12 -313 15 -780 20 -264 3 -485 7 -491 9 -12 3 -76
131 -119 237 -14 35 -30 72 -35 83 -5 11 -32 76 -60 145 -28 69 -56 134 -61
145 -4 11 -18 45 -29 75 -11 30 -24 64 -29 75 -59 141 -94 223 -102 235 -5 8
-22 40 -37 70 -80 153 -145 260 -164 268 -5 2 -8 8 -8 14 0 30 -184 219 -390
402 -56 50 -161 125 -260 186 -58 36 -114 71 -125 78 -46 28 -243 122 -257
122 -8 0 -18 3 -22 7 -6 6 -62 29 -96 38 -8 2 -40 11 -70 20 -30 9 -63 18 -73
20 -10 2 -26 6 -35 9 -9 3 -28 7 -42 10 -14 2 -72 14 -130 27 -115 24 -324 31
-460 16 -41 -5 -93 -11 -115 -13 -44 -5 -135 -20 -175 -29 -14 -3 -38 -8 -55
-11 -102 -18 -506 -171 -615 -231 -107 -60 -310 -209 -510 -375 -9 -7 -40 -33
-70 -58 -30 -25 -57 -47 -60 -50 -3 -3 -45 -39 -95 -80 -49 -41 -103 -87 -120
-102 -16 -15 -40 -35 -51 -45 -18 -15 -122 -111 -250 -228 -17 -16 -60 -55
-95 -85 -151 -132 -282 -255 -423 -396 l-121 -121 -365 -7 c-201 -4 -392 -9
-425 -11 -33 -2 -100 -7 -150 -10 -49 -3 -101 -7 -115 -9 -14 -3 -65 -7 -114
-11 -49 -4 -98 -8 -110 -10 -11 -2 -57 -7 -101 -11 -44 -3 -93 -7 -110 -9 -16
-1 -75 -6 -130 -9 -55 -4 -120 -9 -145 -11 -41 -3 -153 -11 -290 -21 -30 -2
-107 -6 -170 -8 -63 -3 -167 -7 -230 -11 -63 -3 -158 -8 -210 -10 -100 -5
-186 -11 -285 -20 -33 -2 -89 -7 -125 -10 -73 -7 -136 -13 -195 -20 -22 -3
-62 -7 -90 -10 -27 -2 -72 -7 -100 -10 -27 -3 -79 -8 -115 -11 -36 -3 -81 -7
-100 -9 -66 -6 -224 -49 -240 -65 -3 -3 -21 -14 -40 -24 -101 -56 -170 -174
-200 -341 -5 -27 -12 -61 -15 -75 -3 -14 -7 -36 -10 -50 -10 -52 -14 -72 -19
-88 -3 -9 -7 -33 -10 -52 -8 -49 -11 -63 -41 -186 -14 -60 -28 -116 -30 -124
-11 -50 -68 -266 -85 -325 -12 -38 -23 -77 -25 -85 -2 -8 -22 -78 -45 -155
-23 -77 -42 -144 -43 -150 -2 -5 -5 -14 -9 -20 -3 -5 -11 -36 -19 -68 -14 -67
-24 -79 -25 -34 -1 29 -12 250 -19 372 -2 28 -6 93 -10 145 -8 122 -13 200
-20 330 -3 58 -8 134 -11 170 -6 67 -10 131 -19 285 -3 49 -7 117 -10 150 -10
126 -16 219 -20 313 -3 53 -7 133 -10 177 -9 171 -16 314 -20 405 -2 52 -6
124 -9 160 -3 36 -8 117 -11 180 -4 63 -8 133 -10 155 -3 22 -7 78 -10 125 -3
47 -7 105 -9 130 -3 25 -7 88 -11 140 -3 52 -8 118 -10 145 -3 28 -7 88 -10
135 -3 47 -7 105 -9 130 -3 25 -8 88 -11 140 -3 52 -8 109 -9 125 -2 17 -6 64
-10 105 -4 41 -8 89 -10 105 -3 17 -7 62 -11 100 -3 39 -8 86 -10 105 -2 19
-7 69 -10 110 -4 41 -8 82 -10 90 -2 8 -6 56 -10 105 -4 50 -8 106 -10 125 -4
33 -7 77 -20 290 -12 207 -31 614 -40 870 -4 97 -5 745 -2 992 1 76 6 138 10
138 5 0 5 5 1 11 -3 6 -5 50 -4 98 1 47 4 145 5 216 5 191 6 1037 1 1202 -2
78 -7 147 -11 152 -3 6 -1 11 5 11 6 0 9 4 5 9 -6 10 -11 218 -20 776 -3 182
-7 411 -10 510 -2 99 -7 290 -10 425 -3 135 -7 340 -10 455 -2 116 -7 320 -10
455 -13 570 -23 855 -50 1415 -5 93 -11 282 -20 605 -7 255 -21 553 -29 593
-22 114 -43 177 -58 177 -5 0 -6 4 -3 10 3 5 -23 38 -57 73 -59 60 -124 100
-188 115 -47 10 -202 5 -217 -8 -2 -2 -6 -3 -10 -5 -42 -11 -146 -78 -137 -87
3 -4 -4 -9 -15 -13 -12 -3 -21 -11 -21 -16 0 -6 -11 -25 -24 -42 -56 -74 -67
-137 -91 -527 -2 -47 -7 -125 -11 -173 -3 -49 -7 -114 -9 -145 -2 -31 -6 -84
-9 -117 -4 -33 -9 -82 -11 -110 -3 -27 -8 -72 -10 -100 -5 -54 -14 -142 -20
-190 -2 -16 -9 -73 -15 -125 -6 -52 -13 -108 -15 -125 -2 -16 -6 -57 -10 -90
-3 -33 -8 -76 -10 -95 -11 -84 -15 -118 -20 -170 -3 -30 -7 -73 -10 -95 -2
-22 -7 -64 -10 -94 -3 -30 -8 -68 -10 -85 -3 -17 -7 -56 -10 -86 -5 -64 -12
-117 -25 -215 -5 -38 -12 -95 -15 -125 -3 -30 -8 -68 -10 -85 -8 -55 -24 -189
-30 -245 -3 -30 -8 -68 -10 -85 -8 -60 -24 -208 -30 -275 -2 -25 -6 -65 -9
-90 -3 -25 -8 -72 -12 -105 -10 -101 -13 -129 -18 -165 -3 -19 -8 -53 -10 -75
-11 -87 -47 -354 -56 -415 -5 -36 -12 -85 -15 -110 -4 -25 -8 -56 -10 -70 -2
-14 -6 -50 -10 -81 -3 -31 -8 -67 -10 -80 -3 -13 -7 -55 -10 -94 -2 -38 -6
-79 -9 -90 -2 -11 -7 -58 -10 -105 -8 -95 -13 -166 -21 -255 -3 -33 -7 -89
-10 -125 -3 -36 -8 -92 -11 -125 -3 -33 -7 -80 -9 -105 -2 -25 -6 -63 -9 -85
-2 -22 -8 -69 -11 -104 -7 -70 -11 -108 -19 -161 -3 -19 -8 -59 -12 -89 -3
-30 -7 -61 -9 -70 -4 -24 -16 -122 -29 -241 -4 -30 -8 -66 -11 -80 -2 -14 -7
-50 -10 -80 -3 -30 -8 -66 -10 -80 -2 -14 -6 -49 -9 -77 -3 -29 -9 -77 -12
-105 -3 -29 -7 -64 -9 -78 -2 -14 -7 -59 -10 -100 -4 -41 -9 -88 -11 -105 -2
-16 -6 -55 -9 -85 -4 -30 -13 -107 -22 -170 -8 -63 -16 -129 -18 -147 -4 -31
-13 -95 -20 -143 -2 -14 -9 -63 -15 -110 -6 -47 -13 -96 -15 -110 -2 -14 -7
-49 -10 -79 -4 -30 -8 -62 -10 -71 -2 -9 -6 -41 -10 -71 -3 -30 -8 -65 -10
-79 -2 -14 -7 -54 -10 -90 -4 -36 -9 -74 -11 -84 -2 -11 -6 -44 -9 -75 -6 -66
-13 -123 -20 -171 -2 -19 -7 -60 -10 -90 -3 -30 -8 -66 -10 -80 -3 -14 -7 -50
-10 -80 -3 -30 -7 -66 -10 -80 -2 -14 -6 -45 -9 -70 -3 -25 -8 -65 -11 -90 -4
-25 -8 -63 -10 -84 -3 -21 -7 -55 -9 -75 -3 -20 -8 -65 -11 -101 -6 -63 -11
-108 -20 -200 -7 -65 -18 -228 -30 -420 -3 -52 -8 -123 -10 -158 -2 -34 -7
-108 -10 -165 -6 -111 -13 -225 -20 -327 -2 -36 -7 -105 -10 -155 -12 -194
-32 -466 -40 -550 -7 -76 -14 -153 -20 -220 -5 -66 -12 -127 -21 -207 -7 -57
-8 -70 -18 -168 -4 -36 -9 -72 -11 -80 -2 -8 -7 -37 -10 -65 -10 -95 -18 -160
-21 -179 -2 -10 -6 -44 -10 -75 -3 -31 -7 -63 -9 -71 -5 -26 -14 -93 -20 -140
-11 -86 -67 -442 -91 -575 -2 -16 -12 -68 -20 -115 -8 -47 -19 -106 -25 -132
-6 -25 -12 -57 -14 -70 -2 -20 -21 -126 -30 -168 -2 -8 -4 -23 -4 -32 -1 -29
-16 -21 -37 19 -10 21 -22 42 -27 48 -4 5 -55 82 -114 170 -58 88 -118 177
-132 198 -13 20 -28 37 -33 37 -4 0 -8 5 -8 10 0 16 -50 68 -100 105 -25 18
-74 43 -110 55 -65 22 -69 22 -945 25 -809 4 -1096 8 -1215 19 -25 2 -81 7
-125 11 -44 4 -89 9 -100 11 -11 2 -49 6 -85 10 -36 3 -76 7 -90 9 -14 2 -61
7 -105 11 -44 4 -91 8 -105 9 -14 2 -32 3 -40 4 -9 1 -27 22 -40 49 -14 26
-27 49 -30 52 -3 3 -14 23 -25 45 -11 22 -34 65 -51 95 -17 30 -49 89 -71 130
-119 225 -203 337 -396 534 -158 160 -248 231 -393 309 -47 24 -165 73 -204
83 -8 2 -66 17 -128 34 -62 16 -127 32 -145 35 -18 3 -45 8 -62 12 -16 3 -41
7 -55 9 -179 23 -228 23 -480 -1 -19 -2 -60 -6 -90 -10 -30 -3 -73 -8 -95 -10
-22 -3 -51 -6 -65 -9 -14 -2 -46 -7 -71 -10 -53 -8 -75 -12 -144 -26 -91 -19
-100 -21 -117 -26 -9 -3 -26 -7 -38 -9 -31 -6 -263 -86 -275 -95 -5 -4 -21
-11 -35 -15 -14 -4 -45 -17 -70 -28 -25 -11 -50 -21 -56 -22 -31 -7 -320 -155
-422 -217 -124 -75 -309 -195 -330 -215 -6 -6 -21 -15 -32 -18 -11 -3 -20 -10
-20 -15 0 -5 -9 -12 -20 -15 -11 -3 -26 -12 -32 -18 -7 -7 -35 -27 -63 -44
-27 -18 -54 -36 -60 -40 -5 -5 -57 -40 -115 -78 -58 -39 -111 -75 -117 -82 -7
-6 -45 -33 -85 -59 -69 -46 -597 -439 -608 -453 -18 -23 -88 -65 -106 -63 -12
1 -61 11 -109 22 -48 11 -102 22 -119 25 -34 4 -78 12 -116 20 -14 3 -58 12
-98 19 -40 7 -74 15 -77 17 -7 8 -16 110 -31 339 -2 36 -6 85 -9 110 -3 25 -8
81 -10 125 -3 44 -7 100 -10 125 -2 24 -7 78 -10 120 -3 41 -8 107 -11 145 -2
39 -7 90 -9 115 -2 25 -7 79 -10 120 -9 123 -15 203 -20 245 -7 72 -18 219
-19 262 -1 24 -3 43 -6 43 -3 0 -5 21 -6 48 -1 50 -11 187 -19 262 -3 25 -7
77 -10 115 -6 83 -13 171 -20 240 -3 28 -7 86 -10 130 -3 44 -8 103 -11 130
-3 28 -7 75 -9 105 -2 30 -6 82 -9 115 -7 66 -13 144 -21 250 -3 39 -8 88 -10
110 -2 22 -7 74 -10 115 -17 225 -23 299 -29 360 -3 25 -7 86 -11 135 -4 50
-8 110 -11 135 -7 71 -14 149 -19 225 -3 39 -7 93 -10 120 -9 96 -16 180 -20
245 -2 36 -6 90 -9 120 -3 30 -8 91 -11 135 -3 44 -8 103 -10 130 -3 28 -7 82
-10 120 -5 64 -8 102 -20 265 -2 30 -6 84 -9 120 -6 72 -16 199 -21 275 -2 28
-6 82 -9 120 -3 39 -8 106 -12 150 -3 44 -8 105 -10 135 -3 30 -7 89 -9 130
-2 41 -7 102 -9 135 -3 33 -8 94 -11 135 -3 41 -8 107 -10 145 -3 39 -8 102
-10 140 -3 39 -7 99 -10 135 -3 36 -8 99 -10 140 -3 41 -7 102 -10 135 -3 34
-7 94 -10 135 -2 41 -7 102 -10 135 -3 33 -7 96 -10 140 -3 44 -7 107 -10 140
-2 33 -7 98 -10 145 -3 47 -7 110 -10 140 -2 30 -7 93 -10 140 -3 47 -8 110
-10 140 -2 30 -7 98 -10 150 -4 52 -8 115 -10 140 -4 49 -15 203 -21 290 -1
30 -5 84 -8 120 -3 36 -8 108 -11 160 -3 52 -8 115 -10 140 -2 25 -6 92 -10
150 -4 58 -8 123 -10 145 -2 22 -6 87 -10 145 -3 58 -8 137 -11 175 -5 67 -9
139 -19 325 -2 47 -6 121 -9 165 -5 74 -8 122 -21 380 -7 134 -15 270 -20 360
-3 44 -8 116 -10 160 -9 141 -16 259 -20 300 -1 22 -6 87 -9 145 -4 58 -9 121
-11 140 -4 39 -15 173 -20 235 -3 39 -11 126 -20 215 -2 25 -7 72 -10 105 -4
33 -8 71 -10 85 -2 14 -7 54 -10 90 -4 36 -9 73 -10 82 -2 9 -6 41 -9 70 -4
29 -8 62 -10 74 -2 11 -7 45 -10 75 -3 30 -8 65 -10 79 -3 14 -7 43 -11 64 -3
21 -7 48 -10 60 -2 12 -7 37 -10 56 -2 19 -7 46 -10 60 -3 14 -7 39 -10 55 -6
40 -14 85 -21 115 -3 14 -8 36 -10 50 -3 14 -11 61 -20 105 -8 44 -17 112 -20
150 -7 94 -10 111 -28 171 -19 60 -63 144 -77 144 -5 0 -9 5 -9 10 0 36 -171
153 -239 165 -19 3 -39 9 -45 12 -10 7 -162 14 -168 8z"/>
<path d="M26175 7089 c-169 -31 -306 -147 -376 -319 -23 -57 -26 -77 -24 -165
1 -55 4 -107 7 -115 11 -39 31 -94 42 -114 24 -47 88 -125 123 -152 21 -15 40
-30 43 -33 3 -4 25 -17 50 -30 36 -19 170 -118 190 -140 3 -4 48 -44 100 -90
145 -129 710 -701 918 -929 14 -15 91 -96 171 -181 80 -84 160 -168 176 -186
198 -212 256 -274 276 -296 13 -15 61 -67 106 -115 45 -49 94 -102 108 -119
38 -43 135 -171 135 -178 0 -3 -6 -12 -13 -19 -7 -7 -56 -69 -109 -138 -52
-69 -104 -135 -115 -147 -11 -12 -28 -34 -39 -48 -10 -15 -27 -36 -38 -48 -10
-12 -39 -49 -64 -82 -26 -33 -51 -64 -58 -70 -6 -5 -33 -39 -60 -75 -27 -36
-52 -67 -55 -70 -9 -8 -229 -295 -364 -475 -66 -88 -124 -165 -130 -171 -5 -7
-19 -24 -30 -40 -26 -37 -267 -348 -274 -354 -5 -4 -103 -126 -181 -224 -8
-10 -22 -26 -31 -35 -8 -9 -44 -52 -79 -96 -35 -44 -67 -82 -70 -85 -10 -9
-31 -45 -36 -62 -4 -10 -11 -18 -17 -18 -6 0 -8 -2 -5 -6 3 -3 -4 -28 -15 -57
-26 -66 -32 -204 -12 -271 8 -25 14 -49 14 -51 0 -3 14 -34 32 -68 41 -81 134
-171 219 -211 67 -31 77 -35 120 -39 14 -2 30 -5 35 -8 11 -6 120 -3 145 4 8
2 32 7 53 12 20 4 37 11 37 16 0 5 3 8 8 7 14 -3 62 14 62 22 0 5 10 12 22 16
25 7 115 95 168 163 19 24 40 48 46 55 5 6 32 38 58 71 27 33 52 62 55 65 3 3
19 23 36 45 16 22 34 45 40 51 5 6 24 28 40 49 17 21 41 52 55 69 14 17 28 36
32 41 5 6 23 28 40 51 71 89 210 270 253 330 11 15 25 32 30 38 6 6 22 27 35
46 13 19 27 37 30 40 3 3 22 28 41 55 18 28 39 55 45 60 8 8 30 37 106 140 10
13 66 84 100 126 15 19 53 68 85 109 32 41 139 176 239 300 99 124 207 261
239 305 33 44 62 82 65 85 24 24 160 246 160 262 0 6 6 19 13 27 51 61 97 336
69 411 -5 14 -7 30 -5 37 2 6 -1 14 -6 18 -6 3 -11 16 -11 29 0 12 -3 26 -7
30 -5 4 -8 11 -8 14 -2 17 -80 174 -127 251 -74 124 -193 282 -276 367 -13 13
-21 24 -19 24 2 0 -21 26 -52 59 -31 32 -96 103 -146 157 -49 54 -126 137
-171 184 -44 47 -94 99 -110 117 -36 39 -242 258 -308 327 -471 497 -692 723
-872 892 -314 296 -479 426 -634 501 -36 18 -81 37 -101 43 -46 14 -172 19
-224 9z"/>
</g>
</svg>
